<svg xmlns="http://www.w3.org/2000/svg" viewBox="0 0 1640 660"><title>Balas.id</title><defs><linearGradient id="bg" x1="60" y1="40" x2="470" y2="600" gradientUnits="userSpaceOnUse">
  <stop offset="0" stop-color="#22A6EE"/><stop offset="1" stop-color="#0665D8"/>
</linearGradient>
<linearGradient id="bl" x1="0" y1="395" x2="0" y2="545" gradientUnits="userSpaceOnUse">
  <stop offset="0" stop-color="#48B4F2"/><stop offset="1" stop-color="#1872E2"/>
</linearGradient></defs><g fill="url(#bg)">
  <circle cx="289" cy="54" r="27"/>
  <rect x="278" y="70" width="22" height="56"/>
  <rect x="79" y="224" width="70" height="80" rx="18"/>
  <rect x="430" y="212" width="69" height="120" rx="20"/>
  <path d="M258 118H320A140 140 0 0 1 460 258V320A70 70 0 0 1 390 390H188A70 70 0 0 1 118 320V258A140 140 0 0 1 258 118Z"/>
  <path d="M21 330Q21 300 51 300H150V362H440Q489 362 489 411V480Q489 541 428 541H142L46 614Q21 633 21 602Z"/>
</g>
<rect x="159" y="174" width="261" height="190" rx="52" fill="#fff"/>
<path d="M110 545V455Q110 395 170 395H412Q470 395 470 453V483Q470 541 412 541H142Z" fill="url(#bl)"/><g fill="#FFFFFF"><path transform="translate(570.94 470) scale(0.13501 -0.15570)" d="M786 -16C1034 -16 1234 179 1234 558C1234 950 1023 1132 788 1132C610 1132 514 1027 472 926H464V1490H115V0H460V181H472C516 80 615 -16 786 -16ZM667 256C534 256 456 375 456 558C456 743 534 859 667 859C802 859 875 740 875 558C875 376 801 256 667 256Z"/><path transform="translate(751.44 470) scale(0.13501 -0.15570)" d="M428 -20C583 -20 691 42 752 157H761V0H1089V759C1089 999 870 1132 592 1132C312 1132 136 1001 92 810L408 769C427 839 492 884 589 884C684 884 741 840 741 763V759C741 690 665 676 476 660C250 641 60 558 60 310C60 89 213 -20 428 -20ZM534 211C450 211 390 251 390 326C390 400 448 444 551 459C616 469 704 484 744 505V398C744 288 651 211 534 211Z"/><path transform="translate(910.91 470) scale(0.13501 -0.15570)" d="M464 1490H115V0H464Z"/><path transform="translate(984.44 470) scale(0.13501 -0.15570)" d="M428 -20C583 -20 691 42 752 157H761V0H1089V759C1089 999 870 1132 592 1132C312 1132 136 1001 92 810L408 769C427 839 492 884 589 884C684 884 741 840 741 763V759C741 690 665 676 476 660C250 641 60 558 60 310C60 89 213 -20 428 -20ZM534 211C450 211 390 251 390 326C390 400 448 444 551 459C616 469 704 484 744 505V398C744 288 651 211 534 211Z"/><path transform="translate(1135.68 470) scale(0.13501 -0.15570)" d="M586 -21C891 -21 1110 127 1110 357C1110 519 1003 617 781 659L567 699C471 718 441 753 441 798C441 855 507 892 591 892C685 892 749 848 770 773L1078 822C1039 1014 865 1132 585 1132C285 1132 93 1000 93 777C93 606 203 497 424 455L619 417C712 398 756 369 756 317C756 260 697 224 599 224C480 224 417 274 389 371L65 320C104 106 300 -21 586 -21Z"/><path transform="translate(1275.26 470) scale(0.13501 -0.15570)" d="M361 -21C468 -21 550 59 550 165C550 271 468 352 361 352C254 352 172 271 172 165C172 59 254 -21 361 -21Z"/><path transform="translate(1356.91 470) scale(0.13501 -0.15570)" d="M115 0H464V1118H115ZM289 1249C389 1249 470 1324 470 1417C470 1510 389 1585 289 1585C190 1585 109 1510 109 1417C109 1324 190 1249 289 1249Z"/><path transform="translate(1435.81 470) scale(0.13501 -0.15570)" d="M520 -16C690 -16 790 80 834 181H846V0H1190V1490H842V926H834C792 1027 696 1132 517 1132C282 1132 72 950 72 558C72 179 271 -16 520 -16ZM639 256C504 256 431 376 431 558C431 740 504 859 639 859C772 859 850 743 850 558C850 375 771 256 639 256Z"/></g></svg>